<?xml version="1.0" standalone="no"?>
<!DOCTYPE svg PUBLIC "-//W3C//DTD SVG 20010904//EN"
 "http://www.w3.org/TR/2001/REC-SVG-20010904/DTD/svg10.dtd">
<svg version="1.0" xmlns="http://www.w3.org/2000/svg"
 width="16.000000pt" height="16.000000pt" viewBox="0 0 16.000000 16.000000"
 preserveAspectRatio="xMidYMid meet">

<g transform="translate(0.000000,16.000000) scale(0.100000,-0.100000)"
fill="#000000" stroke="none">
<path d="M81 83 c2 -32 3 -38 6 -18 6 49 12 60 25 47 8 -8 8 -15 0 -24 -10
-13 6 -48 23 -48 4 0 2 7 -5 15 -6 8 -9 23 -5 36 5 14 2 25 -6 30 -30 19 -39
10 -38 -38z"/>
<path d="M11 83 c-1 -48 9 -59 39 -43 27 15 23 55 -5 55 -11 0 -23 7 -27 15
-4 8 -7 -4 -7 -27z m44 -3 c10 -16 -16 -43 -28 -31 -11 11 -2 41 12 41 5 0 13
-5 16 -10z"/>
</g>
</svg>
