<?xml version="1.0" encoding="iso-8859-1"?>
<!-- Generator: Adobe Illustrator 19.0.0, SVG Export Plug-In . SVG Version: 6.00 Build 0)  -->
<svg version="1.1" id="Layer_1" xmlns="http://www.w3.org/2000/svg" xmlns:xlink="http://www.w3.org/1999/xlink" x="0px" y="0px"
	 viewBox="0 0 511.996 511.996" style="enable-background:new 0 0 511.996 511.996;" xml:space="preserve">
<g>
	<path style="fill:#573A32;" d="M337.372,29.958L228.87,138.46c-10.402,10.402-17.954,22.519-22.938,35.405
		c9.216-0.35,18.423,0.077,27.52,1.707c3.524-6.801,7.791-13.329,13.5-19.029L355.454,48.041c29.909-29.909,78.583-29.909,108.501,0
		c29.918,29.918,29.918,78.583,0,108.501L355.454,265.043c-29.909,29.909-78.583,29.909-108.501,0
		c-10.94-10.94-25.617-15.65-39.945-14.601c4.992,11.861,12.203,23.023,21.862,32.683c39.945,39.945,104.713,39.953,144.666,0
		l108.501-108.501c39.945-39.945,39.945-104.721,0-144.666S377.325-9.986,337.372,29.958z"/>
	<path style="fill:#573A32;" d="M156.542,246.953c29.909-29.909,78.583-29.909,108.501,0c10.94,10.94,25.617,15.659,39.945,14.601
		c-4.983-11.861-12.203-23.023-21.862-32.683c-39.953-39.945-104.713-39.945-144.666,0L29.958,337.372
		c-39.945,39.945-39.945,104.713,0,144.666c39.945,39.945,104.713,39.945,144.666,0l108.501-108.501
		c10.402-10.402,17.954-22.519,22.938-35.405c-9.216,0.35-18.423-0.077-27.52-1.707c-3.524,6.81-7.791,13.329-13.5,19.029
		L156.542,463.955c-29.909,29.909-78.583,29.909-108.501,0c-29.918-29.909-29.909-78.583,0-108.501L156.542,246.953z"/>
</g>
<g>
</g>
<g>
</g>
<g>
</g>
<g>
</g>
<g>
</g>
<g>
</g>
<g>
</g>
<g>
</g>
<g>
</g>
<g>
</g>
<g>
</g>
<g>
</g>
<g>
</g>
<g>
</g>
<g>
</g>
</svg>
